<?xml version="1.0" standalone="no"?>
<!DOCTYPE svg PUBLIC "-//W3C//DTD SVG 20010904//EN"
 "http://www.w3.org/TR/2001/REC-SVG-20010904/DTD/svg10.dtd">
<svg version="1.0" xmlns="http://www.w3.org/2000/svg"
 width="2027.000000pt" height="2027.000000pt" viewBox="0 0 2027.000000 2027.000000"
 preserveAspectRatio="xMidYMid meet">
<metadata>
Created by potrace 1.14, written by Peter Selinger 2001-2017
</metadata>
<g transform="translate(0.000000,2027.000000) scale(0.100000,-0.100000)"
fill="#000000" stroke="none">
<path d="M10359 18159 c-56 -16 -130 -78 -158 -134 l-26 -49 -3 -769 -2 -769
-23 6 c-88 22 -394 78 -497 90 -535 67 -1134 33 -1554 -89 -573 -166 -1113
-562 -1493 -1095 -137 -191 -260 -416 -338 -615 -15 -38 -30 -74 -34 -78 -4
-4 -89 -2 -189 4 -618 42 -1261 -131 -1787 -480 -331 -220 -651 -549 -862
-889 -288 -464 -433 -976 -433 -1532 0 -470 90 -858 295 -1275 123 -250 252
-445 429 -647 l76 -86 -50 -81 c-176 -284 -321 -668 -379 -1005 -49 -278 -53
-653 -11 -930 94 -621 373 -1171 819 -1617 86 -86 199 -189 251 -229 406 -313
850 -509 1330 -589 224 -37 533 -53 612 -31 63 18 129 70 162 130 l31 55 0
385 c0 384 0 385 -23 430 -31 58 -57 86 -111 118 -41 24 -57 26 -214 34 -93 4
-221 17 -283 28 -276 49 -572 183 -784 354 -36 29 -75 58 -87 64 -31 17 -215
233 -278 328 -315 470 -382 1083 -175 1607 50 126 120 253 208 377 87 124 292
328 405 405 123 84 172 128 197 183 65 138 -9 311 -158 367 -119 45 -287 140
-410 233 -766 575 -926 1660 -359 2425 257 347 630 584 1067 679 92 20 133 22
335 22 202 0 243 -2 335 -22 210 -46 400 -122 604 -243 73 -44 98 -54 146 -57
108 -8 202 42 257 136 l27 46 1 271 c1 242 3 281 23 375 57 263 174 524 321
715 255 333 642 580 1016 649 493 91 842 68 1427 -95 l148 -41 2 -5492 3
-5491 22 -41 c12 -22 40 -57 63 -78 96 -87 163 -90 410 -18 431 125 776 260
1135 443 1787 909 3052 2629 3385 4602 118 699 118 1395 0 2092 -337 2001
-1639 3747 -3455 4635 -110 54 -246 117 -302 141 l-103 42 0 319 c0 189 4 318
9 318 17 0 358 -139 489 -199 1074 -492 1984 -1233 2710 -2208 805 -1082 1234
-2279 1323 -3693 15 -236 6 -817 -15 -1040 -69 -716 -231 -1376 -497 -2020
-87 -213 -307 -650 -427 -852 -1121 -1879 -3032 -3123 -5175 -3368 -94 -11
-182 -20 -194 -20 l-23 0 -2 5552 -3 5553 -22 41 c-12 22 -40 57 -63 78 -80
72 -72 71 -490 71 l-375 0 -57 -28 c-33 -16 -70 -45 -88 -67 -64 -81 -60 73
-60 -2109 l0 -1986 -752 752 c-581 580 -763 757 -798 772 -66 30 -161 28 -226
-4 -69 -34 -534 -501 -563 -565 -29 -65 -28 -160 3 -225 19 -40 247 -273 1180
-1205 l1156 -1155 0 -735 0 -735 -862 861 c-944 942 -905 908 -1024 908 -109
0 -137 -21 -420 -306 -229 -230 -253 -258 -269 -307 -22 -67 -16 -150 15 -212
16 -31 382 -405 1291 -1314 l1269 -1270 0 -1675 0 -1675 24 -50 c29 -61 76
-107 138 -135 41 -18 74 -21 270 -27 351 -9 813 16 1213 68 2307 295 4385
1586 5691 3535 552 823 946 1739 1163 2700 543 2409 -29 4909 -1566 6842 -209
263 -355 425 -622 693 -355 355 -636 594 -1022 870 -873 623 -1860 1065 -2919
1305 -208 47 -313 59 -371 43z m1086 -3440 c776 -429 1457 -1089 1919 -1859
635 -1057 866 -2303 655 -3540 -134 -790 -463 -1553 -948 -2200 -146 -196
-297 -367 -495 -565 -363 -363 -738 -645 -1168 -879 l-88 -48 0 4576 c0 2517
3 4576 8 4576 4 0 57 -27 117 -61z"/>
</g>
</svg>
