<svg id="Слой_1" data-name="Слой 1" xmlns="http://www.w3.org/2000/svg" viewBox="0 0 1392.71 493.71"><defs><style>.cls-1,.cls-2,.cls-6{fill:#fff;}.cls-2{font-size:346px;letter-spacing:0.01em;}.cls-2,.cls-6{font-family:AvantGardeGothicC-Demi, AvantGardeC;font-weight:300;}.cls-3{letter-spacing:0.07em;}.cls-4{letter-spacing:0.08em;}.cls-5{letter-spacing:0.16em;}.cls-6{font-size:84.5px;letter-spacing:0.07em;}</style></defs><title>logo</title><path class="cls-1" d="M935.27,352.78c-2.4,0-4.8,0-7.15-.14a5.81,5.81,0,0,1-5.57-5.81V274.37l-55.23-55.22a5.81,5.81,0,0,1,0-8.22l9.62-9.62a5.81,5.81,0,0,1,8.22,0l37.39,37.39V206.15l-50.23-50.22a5.82,5.82,0,0,1,0-8.22l9.63-9.62a5.82,5.82,0,0,1,8.22,0l32.38,32.38V84.11a5.81,5.81,0,0,1,5.81-5.81h13.82A5.81,5.81,0,0,1,948,84.11V326.44a151.46,151.46,0,0,0,94.84-44c37-37,52-88.25,41.11-140.53a141.59,141.59,0,0,0-20.15-48.74c-18.87-28.87-45.12-49.92-76.25-61.25V46.1A139,139,0,0,1,983.84,305a5.55,5.55,0,0,1-.52.2,139.66,139.66,0,0,1-14,4.33,5.76,5.76,0,0,1-1.42.18,5.82,5.82,0,0,1-5.81-5.81V64.51c-9.37-2.75-15.89-4.14-22.85-4.14a69.15,69.15,0,0,0-13.57,1.5h-.06a38.4,38.4,0,0,0-28.33,37,37.89,37.89,0,0,0,.24,4.29,5.81,5.81,0,0,1-5.77,6.46,5.76,5.76,0,0,1-3.22-1,38.39,38.39,0,0,0-58.67,24.06,38.48,38.48,0,0,0,23.83,43.77,5.81,5.81,0,0,1,1,10.36,38.47,38.47,0,0,0-9.83,8.7,37.88,37.88,0,0,0-8.42,24,38.36,38.36,0,0,0,5.06,19l.13.2a37.23,37.23,0,0,0,5.17,6.95l.32.36c.48.61,1,1.21,1.48,1.8a5.57,5.57,0,0,1,1.38.88,38.31,38.31,0,0,0,24.81,9.13h1.46a5.84,5.84,0,0,1,5.83,5.82v13.81a5.81,5.81,0,0,1-5.81,5.81h-1.48a63.36,63.36,0,0,1-22.69-4.17,64,64,0,0,1-25.84-18.27,2.55,2.55,0,0,1-.26-.3c-.09-.1-.17-.21-.26-.32-.94-1.21-1.87-2.44-2.77-3.67-.48-.65-1-1.38-1.5-2.1l-.2-.29A63.69,63.69,0,0,1,813.72,201a1.21,1.21,0,0,0,0-.18,63.46,63.46,0,0,1,7.54-16.07A63.81,63.81,0,0,1,875.58,77.4a63.52,63.52,0,0,1,8.19-15.59c9.77-13.62,23.37-22.59,38.31-25.25a95.45,95.45,0,0,1,40,1.45V5.81A5.81,5.81,0,0,1,967.91,0a5.2,5.2,0,0,1,1.1.11c4.81.92,9.61,2.06,14.29,3.37,76.48,21.38,129.9,91.85,129.9,171.36a177.95,177.95,0,0,1-170.79,177.8C940.07,352.73,937.66,352.78,935.27,352.78Zm52.27-77.29a113.49,113.49,0,0,0,0-201.28Z"/><text class="cls-2" transform="translate(4.62 321.75)">Д<tspan class="cls-3" x="286.14" y="0">У</tspan><tspan class="cls-4" x="553.6" y="0" xml:space="preserve">Б  </tspan><tspan class="cls-5" x="1000.27" y="0"> </tspan><tspan class="cls-4" x="1137.97" y="0">К</tspan></text><text class="cls-6" transform="translate(0 475.54)">МАРКЕТ | РЕСТОРАН | ГОТЕЛЬ</text></svg>